<svg xmlns="http://www.w3.org/2000/svg" version="1.1" xmlns:xlink="http://www.w3.org/1999/xlink" xmlns:svgjs="http://svgjs.dev/svgjs" width="171px" height="174px"><svg xmlns="http://www.w3.org/2000/svg" version="1.1" width="171px" height="174px" style="shape-rendering:geometricPrecision; text-rendering:geometricPrecision; image-rendering:optimizeQuality; fill-rule:evenodd; clip-rule:evenodd" xmlns:xlink="http://www.w3.org/1999/xlink">
<g><path style="opacity:1" fill="#fe6b6a" d="M 71.5,0.5 C 102.168,0.333353 132.835,0.50002 163.5,1C 170.389,10.3124 170.055,19.3124 162.5,28C 129.162,28.8332 95.8283,28.6666 62.5,27.5C 59.5398,25.0104 56.5398,22.5104 53.5,20C 59.2559,13.4053 65.2559,6.90529 71.5,0.5 Z"></path></g>
<g><path style="opacity:1" fill="#fe6b6a" d="M 47.5,27.5 C 48.8734,27.3433 50.2068,27.51 51.5,28C 70.0678,45.4018 88.0678,63.2351 105.5,81.5C 105.333,82.1667 105.167,82.8333 105,83.5C 89.6003,98.8997 74.2669,114.233 59,129.5C 39.154,111.32 19.654,92.8196 0.5,74C 5.96078,67.3717 11.9608,61.205 18.5,55.5C 33.1442,68.9764 47.6442,82.6431 62,96.5C 63.5,95 65,93.5 66.5,92C 52.4336,77.9336 38.4336,63.9336 24.5,50C 32.0403,42.2922 39.707,34.7922 47.5,27.5 Z"></path></g>
<g><path style="opacity:1" fill="#fe6b6a" d="M 72.5,35.5 C 100.833,35.5 129.167,35.5 157.5,35.5C 157.649,36.552 157.483,37.552 157,38.5C 144.196,50.3037 131.696,62.4704 119.5,75C 118,75.5 116.5,76 115,76.5C 101.178,64.013 87.345,51.513 73.5,39C 72.6634,37.9887 72.33,36.8221 72.5,35.5 Z"></path></g>
<g><path style="opacity:1" fill="#fe6b6a" d="M 110.5,87.5 C 111.552,87.3505 112.552,87.5172 113.5,88C 126.872,100.865 139.539,114.032 151.5,127.5C 150.127,127.343 148.793,127.51 147.5,128C 142.645,132.855 137.812,137.688 133,142.5C 120.845,131.68 108.678,120.846 96.5,110C 94.9644,108.401 94.4644,106.567 95,104.5C 100.742,99.2623 105.909,93.5957 110.5,87.5 Z"></path></g>
<g><path style="opacity:1" fill="#fe6b6a" d="M 104.5,173.5 C 103.5,173.5 102.5,173.5 101.5,173.5C 88.6624,161.162 75.9958,148.662 63.5,136C 70.0446,129.455 76.5446,122.955 83,116.5C 96.6932,129.027 109.86,142.027 122.5,155.5C 118.673,159.157 114.673,162.657 110.5,166C 107.882,168.106 105.882,170.606 104.5,173.5 Z"></path></g>
</svg><style>@media (prefers-color-scheme: light) { :root { filter: none; } }
@media (prefers-color-scheme: dark) { :root { filter: none; } }
</style></svg>